<?xml version="1.0" standalone="no"?>
<svg xmlns:xlink="http://www.w3.org/1999/xlink" id="wave" style="transform:rotate(180deg); transition: 0.3s" viewBox="0 0 1440 100" version="1.1" xmlns="http://www.w3.org/2000/svg"><defs><linearGradient id="sw-gradient-0" x1="0" x2="0" y1="1" y2="0"><stop stop-color="rgba(255, 249, 234, 1)" offset="0%"/><stop stop-color="rgba(255, 249, 234, 1)" offset="100%"/></linearGradient></defs><path style="transform:translate(0, 0px); opacity:1" fill="url(#sw-gradient-0)" d="M0,20L10,31.7C20,43,40,67,60,78.3C80,90,100,90,120,76.7C140,63,160,37,180,33.3C200,30,220,50,240,51.7C260,53,280,37,300,36.7C320,37,340,53,360,65C380,77,400,83,420,80C440,77,460,63,480,50C500,37,520,23,540,20C560,17,580,23,600,28.3C620,33,640,37,660,33.3C680,30,700,20,720,20C740,20,760,30,780,36.7C800,43,820,47,840,41.7C860,37,880,23,900,20C920,17,940,23,960,31.7C980,40,1000,50,1020,50C1040,50,1060,40,1080,35C1100,30,1120,30,1140,40C1160,50,1180,70,1200,70C1220,70,1240,50,1260,50C1280,50,1300,70,1320,66.7C1340,63,1360,37,1380,36.7C1400,37,1420,63,1430,76.7L1440,90L1440,100L1430,100C1420,100,1400,100,1380,100C1360,100,1340,100,1320,100C1300,100,1280,100,1260,100C1240,100,1220,100,1200,100C1180,100,1160,100,1140,100C1120,100,1100,100,1080,100C1060,100,1040,100,1020,100C1000,100,980,100,960,100C940,100,920,100,900,100C880,100,860,100,840,100C820,100,800,100,780,100C760,100,740,100,720,100C700,100,680,100,660,100C640,100,620,100,600,100C580,100,560,100,540,100C520,100,500,100,480,100C460,100,440,100,420,100C400,100,380,100,360,100C340,100,320,100,300,100C280,100,260,100,240,100C220,100,200,100,180,100C160,100,140,100,120,100C100,100,80,100,60,100C40,100,20,100,10,100L0,100Z"/></svg>